<?xml version="1.0" encoding="utf-8"?>
<svg xmlns="http://www.w3.org/2000/svg" viewBox="0 0 800 500" width="100%" height="100%">
  <rect width="100%" height="100%" fill="#0f172a" />

  <rect x="50" y="50" width="700" height="400" fill="none" stroke="#ef4444" stroke-width="3" />
  
  <rect x="250" y="50" width="500" height="300" fill="#1e293b" stroke="#ef4444" stroke-width="2" />
  <text x="270" y="85" fill="#ef4444" font-family="Arial" font-size="15" font-weight="bold">CORE DATA CENTER - LIMA</text>
  
  <rect x="50" y="50" width="200" height="150" fill="#1e293b" stroke="#64748b" stroke-width="2" />
  <text x="65" y="80" fill="#cbd5e1" font-family="Arial" font-size="12" font-weight="bold">SALA UPS / ENERGÍA</text>
  
  <rect x="50" y="200" width="200" height="150" fill="#1e293b" stroke="#64748b" stroke-width="2" />
  <text x="65" y="230" fill="#cbd5e1" font-family="Arial" font-size="12" font-weight="bold">ESCLUSA DE SEGURIDAD</text>
  
  <g stroke="#3b82f6" stroke-width="1.5" fill="#1d4ed8">
    <rect x="300" y="130" width="50" height="35" />
    <rect x="370" y="130" width="50" height="35" />
    <rect x="440" y="130" width="50" height="35" />
    <rect x="510" y="130" width="50" height="35" />
  </g>
  
  <g stroke="#3b82f6" stroke-width="1.5" fill="#1d4ed8">
    <rect x="300" y="220" width="50" height="35" />
    <rect x="370" y="220" width="50" height="35" />
    <rect x="440" y="220" width="50" height="35" />
    <rect x="510" y="220" width="50" height="35" />
  </g>
  
  <rect x="530" y="380" width="200" height="50" fill="#0f172a" stroke="#475569" stroke-width="1" />
  <text x="540" y="400" fill="#ffffff" font-family="Arial" font-size="12" font-weight="bold">SEDE: LIMA PRINCIPAL</text>
</svg>
